<svg xmlns="http://www.w3.org/2000/svg" width="100" height="100" viewBox="0 0 100 100">
    <defs>
        <clipPath id="yvfowaveja">
            <path fill="#1771a7" stroke="#707070" d="M0 0H100V100H0z" transform="translate(-83 11990)"/>
        </clipPath>
    </defs>
    <g clip-path="url(#yvfowaveja)" transform="translate(83 -11990)">
        <path fill="#1771a7" d="M60.446 83.56h-53A7.43 7.43 0 0 1 0 76.167V7.393A7.43 7.43 0 0 1 7.45 0h53a7.43 7.43 0 0 1 7.45 7.393v68.774a7.43 7.43 0 0 1-7.454 7.393zM7.45 6.336a1.075 1.075 0 0 0-1.065 1.057v68.774a1.074 1.074 0 0 0 1.065 1.055h53a1.074 1.074 0 0 0 1.065-1.055V7.393a1.075 1.075 0 0 0-1.065-1.057zM49.634 65.1H17.955a3.168 3.168 0 1 1 0-6.336h31.679a3.168 3.168 0 1 1 0 6.336zm.153-13.284H18.108a3.169 3.169 0 1 1 0-6.338h31.679a3.169 3.169 0 1 1 0 6.338zm-.153-13.265H17.955a3.169 3.169 0 1 1 0-6.338h31.679a3.169 3.169 0 1 1 0 6.338zm-12.61-13.289H17.955a3.168 3.168 0 1 1 0-6.336h19.07a3.168 3.168 0 1 1 0 6.336z" transform="translate(-67 11998)"/>
    </g>
</svg>
